<svg id="Layer_1" xmlns="http://www.w3.org/2000/svg" viewBox="0 0 94.22 81.71"><defs><style>
      .cls-1 {
        fill: #fff;
      }
      .cls-2 {
        fill: #d7df29;
      }
      .cls-3 {
        fill: #4d2368;
      }
      .cls-4 {
        fill: #f57e20;
      }
      .cls-5 {
        fill: #dcadd0;
      }
    </style></defs><path class="cls-1" d="M89.66,29.95l-6.29-26.35c-.37-1.53-1.47-2.77-2.94-3.31-1.46-.54-3.13-.3-4.39.62l-14.07,10.3c-4.78-1.21-9.77-1.83-14.86-1.83s-10.09.61-14.86,1.83L18.17.9C16.92-.02,15.25-.25,13.79.28c-1.48.54-2.58,1.78-2.94,3.31l-6.29,26.35c-3.02,4.88-4.56,10.12-4.56,15.6,0,19.94,21.13,36.17,47.11,36.17s47.11-16.23,47.11-36.17c0-5.47-1.53-10.72-4.56-15.6Z"></path><path class="cls-3" d="M87.04,31.05l-6.4-26.8c-.15-.61-.59-1.11-1.18-1.32-.59-.22-1.25-.12-1.75.25l-15.16,11.09c-4.93-1.38-10.12-2.08-15.44-2.08s-10.5.7-15.44,2.08L16.51,3.17c-.51-.37-1.16-.46-1.75-.25-.59.22-1.03.71-1.18,1.32l-6.4,26.8c-2.9,4.53-4.37,9.41-4.37,14.49,0,18.39,19.87,33.36,44.3,33.36s44.3-14.96,44.3-33.36c0-5.08-1.47-9.96-4.37-14.49Z"></path><path class="cls-4" d="M89.53,45.55c0,13.49-11.43,25-27.5,29.48-4.64,1.3-9.68,2.01-14.93,2.01-23.43,0-42.42-14.1-42.42-31.48,0-4.92,1.52-9.59,4.24-13.75L15.4,4.69l15.91,11.64c4.88-1.46,10.21-2.26,15.8-2.26,1.27,0,2.53.04,3.77.13,4.22.28,8.26,1.01,12.03,2.14l15.9-11.64,6.47,27.12c2.73,4.16,4.25,8.82,4.25,13.75Z"></path><path class="cls-5" d="M20.3,12.64l7.49,7.21c.2.19.16.51-.07.66l-9.99,6.1c-.31.19-.7-.08-.63-.43l2.5-13.32c.06-.33.46-.45.7-.22Z"></path><path class="cls-5" d="M77.71,12.86l-7.1,6.84c-.28.27-.23.73.1.93l9.47,5.79c.44.27.98-.11.89-.61l-2.37-12.63c-.09-.46-.65-.64-.99-.32Z"></path><g><path class="cls-2" d="M48.15,39.69c.01,7.2-6.05,13.05-13.55,13.06-7.5.02-13.58-5.81-13.6-13.01-.01-7.2,6.05-13.05,13.55-13.06,7.5-.02,13.58,5.81,13.6,13.01Z"></path><path class="cls-3" d="M38.86,39.71c.01,6.21-1.9,11.25-4.26,11.26-2.37,0-4.3-5.03-4.31-11.24-.01-6.21,1.9-11.25,4.26-11.26,2.37,0,4.3,5.03,4.31,11.24Z"></path></g><g><path class="cls-2" d="M75.3,39c.01,7.2-6.05,13.05-13.55,13.06-7.5.02-13.58-5.81-13.6-13.01-.02-7.2,6.05-13.05,13.55-13.06,7.5-.02,13.58,5.81,13.6,13.01Z"></path><path class="cls-3" d="M66.01,39.02c.01,6.21-1.9,11.25-4.26,11.26-2.37,0-4.3-5.03-4.31-11.24-.01-6.21,1.9-11.25,4.26-11.26,2.37,0,4.3,5.03,4.31,11.24Z"></path></g><path class="cls-3" d="M57.73,58.58c-.77,2.42-3.26,4.63-5.67,2.65-1.5-1.23-2.15-3.79-2.27-6.08l3.35-4.39-8.14.25,3.43,4.28c-.13,2.24-.79,4.72-2.26,5.93-2.41,1.98-4.91-.24-5.67-2.65-.25-.78-1.47-.44-1.22.34.86,2.71,3.97,5.8,6.99,3.81,1.4-.93,2.32-2.45,2.85-4.15.53,1.7,1.45,3.22,2.85,4.15,3.01,1.99,6.13-1.1,6.99-3.81.25-.78-.98-1.11-1.22-.34Z"></path><path class="cls-3" d="M38.12,55.53c-3.42-1.89-7.77-.46-11.45-.39-.93.02-.93,1.46,0,1.44,3.21-.07,7.4-1.42,10.45.06.16.17.39.27.68.23.05,0,.1-.02.15-.03.63-.11.68-1.03.17-1.31Z"></path><path class="cls-3" d="M37.18,58.29c-3.66-.86-7.24-.09-10.7,1.25-.85.33-.48,1.72.38,1.39,3.19-1.24,6.52-2.05,9.93-1.25.9.21,1.28-1.17.38-1.39Z"></path><path class="cls-3" d="M60.11,55.53c3.42-1.89,7.77-.46,11.45-.39.93.02.93,1.46,0,1.44-3.21-.07-7.4-1.42-10.45.06-.16.17-.39.27-.68.23-.05,0-.1-.02-.15-.03-.63-.11-.68-1.03-.17-1.31Z"></path><path class="cls-3" d="M61.05,58.29c3.67-.86,7.24-.09,10.7,1.25.86.33.48,1.72-.38,1.39-3.19-1.24-6.52-2.05-9.93-1.25-.9.21-1.28-1.17-.38-1.39Z"></path></svg>