<svg xmlns="http://www.w3.org/2000/svg" fill="none" viewBox="9.05 31.23 266.13 104.26">
<path d="M141.5 89.7204C142.832 88.7669 144.061 88.3271 145.192 88.3975C147.174 88.5206 148.569 90.1567 148.451 92.2133C148.346 94.05 147.046 95.665 144.566 96.9105C140.906 98.895 137.098 99.7675 133.206 99.5265C128.331 99.2257 124.463 97.4383 121.462 94.0834C118.461 90.7267 117.135 86.6628 117.416 81.7439C117.697 76.8233 119.476 72.9512 122.84 69.9886C126.202 67.026 130.245 65.7294 135.122 66.0302C139.012 66.2712 142.695 67.6048 146.103 70.0273C148.422 71.5701 149.529 73.3329 149.424 75.1696C149.305 77.2297 147.734 78.6793 145.752 78.5562C144.622 78.4858 143.452 77.8982 142.237 76.7916C139.885 74.5081 137.404 73.2467 134.79 73.0849C129.7 72.77 125.59 76.4222 125.259 82.2277C124.927 88.0315 128.592 92.164 133.682 92.4789C136.295 92.6408 138.904 91.6943 141.499 89.7204H141.5Z" fill="white"/>
<path d="M68.9373 85.1022C65.9936 81.4817 64.6784 76.8953 65.0017 71.2656C65.3199 65.7169 67.1481 61.3241 70.4827 58.0906C73.8224 54.8588 77.846 53.3845 82.633 53.6801C87.1863 53.9616 90.565 55.566 92.6877 58.3984L92.7063 58.0712C92.8315 55.8686 94.6461 54.4207 96.9228 54.5615C99.3569 54.711 101.063 56.6198 100.896 59.5613L99.3078 87.3048C99.1403 90.2445 97.2275 91.9264 94.7934 91.7751C92.5962 91.6396 90.8748 90.0616 91.0017 87.859L91.0203 87.5317C88.4322 90.0739 84.8995 91.1629 80.5035 90.8919C75.7166 90.5964 71.8893 88.6401 68.9373 85.1005V85.1022ZM92.014 72.9352C92.388 66.4048 89.0957 61.9451 83.5233 61.6003C78.1845 61.2695 74.0882 65.3598 73.7192 71.8057C73.3502 78.2517 76.871 82.8117 82.291 83.1459C87.8651 83.4907 91.6416 79.4655 92.0156 72.9369L92.014 72.9352Z" fill="white"/>
<path d="M193.844 83.6457C196.354 83.8005 197.798 85.0742 197.681 87.0974C197.558 89.249 196.171 90.2781 193.473 90.111C192.591 90.0565 191.088 89.8999 189.02 89.7046C186.949 89.5128 185.761 89.3756 185.382 89.3528L184.295 108.353C184.157 110.772 182.696 112.119 180.683 111.996C178.61 111.868 177.372 110.353 177.511 107.934L178.598 88.934C175.382 88.9305 172.677 88.8285 170.479 88.693C167.778 88.5259 166.522 87.3331 166.645 85.1815C166.761 83.1584 168.335 82.0712 170.85 82.2278L193.846 83.6492L193.844 83.6457Z" fill="white"/>
<path d="M237.413 101.24L236.307 120.558C236.187 122.67 234.85 123.85 233.089 123.743C231.273 123.63 230.083 122.293 230.203 120.182L230.923 107.609L219.695 120.564C218.339 122.084 217.085 122.809 215.875 122.735C214.062 122.622 213.029 121.355 213.151 119.241L214.263 99.8115C214.189 95.3324 220.897 95.7476 220.311 100.184L219.578 112.985L230.804 99.9733C232.163 98.3935 233.425 97.6124 234.631 97.6863C236.39 97.7954 237.528 99.1852 237.409 101.24H237.413Z" fill="white"/>
<path d="M30.2402 44.703L18.5351 67.4871C17.1691 70.1049 15.4527 71.3504 13.3825 71.222C10.703 71.0567 8.92564 68.7872 9.05428 66.5406C9.1203 65.3742 9.54178 64.1392 10.3086 62.8356L25.592 35.0464C27.0461 32.3424 28.8488 31.1021 31.0104 31.2358C33.1686 31.3695 34.8207 32.8227 35.9531 35.6867L47.9612 65.1614C48.5773 66.5512 48.8515 67.8267 48.7838 68.9948C48.6552 71.2414 46.6307 73.2751 43.9562 73.1097C41.8827 72.9813 40.3186 71.5334 39.2624 68.7661L30.2419 44.7012L30.2402 44.703Z" fill="white"/>
<path d="M269.555 134.013L263.142 124.677L259.465 127.004L259.187 131.849C259.084 133.658 257.991 134.622 256.484 134.529C255.023 134.439 254.047 133.346 254.152 131.538L255.103 114.901C255.205 113.14 256.3 112.128 257.806 112.221C259.267 112.311 260.24 113.451 260.139 115.212L259.8 121.132L270.173 114.112C271.25 113.444 272.165 113.108 272.92 113.155C274.378 113.245 275.261 114.332 275.175 115.845C275.116 116.873 274.5 117.77 273.372 118.437L267.492 122.099L273.442 130.472C274.183 131.497 274.512 132.405 274.471 133.139C274.393 134.509 273.386 135.575 271.879 135.482C270.986 135.428 270.21 134.939 269.555 134.015V134.013Z" fill="white"/>
</svg>