<svg id="Layer_1" xmlns="http://www.w3.org/2000/svg" viewBox="0 0 80.62 69.88"><defs><style>
      .cls-1 {
        fill: #e65025;
      }
      .cls-2 {
        fill: #fff;
      }
      .cls-3 {
        fill: #0d0d0d;
      }
      .cls-4 {
        fill: #eea5c9;
      }
    </style></defs><path class="cls-4" d="M42.23,68.71c-3.01,2.46-3.32,1.32-13.9-6.02C16.42,53.18,3.67,42.63.53,26.77c-1.42-7.16-.05-14.38,4.69-19.89C9.41,2.02,15.39-.47,21.85.07c8.41.71,14.99,5.99,18.4,14.08C44.63,4.43,52.37-.92,62.8.13c9.54.96,16.62,8.72,17.67,18.31,1.31,11.96-5.85,23.7-14.18,31.93-4.25,4.2-8.47,8.01-13.42,11.45,0,0-9.78,6.19-10.63,6.89Z"></path><path class="cls-4" d="M20.53,7.29c-.82-3.49-13.39.09-14.34,12.33-.11,1.46.33,2.33,1.78,2.43,1.03.07,1.85-.83,1.9-2.17.42-11.24,11.51-9.03,10.67-12.59Z"></path><path class="cls-4" d="M25.27,25.82c-1.91-.09-4.07.27-5.63,1.82-1.09,1.08-1.47,3.37-.82,4.56,1.2,2.18,3.15,2.53,5.4,3.05,3.42.79,7.07.57,10.09-1.79,1.48-1.15,2.48-3.42.88-5.04-2.48-2.5-6.91-4.37-9.92-2.61Z"></path><path class="cls-4" d="M51.54,25.53c-2.73.34-6.73,1.85-6.6,5.22.11,2.83,3.79,4.79,6.67,4.43,3.18,1.27,7.21.21,9.77-2.26,1.38-1.34,1.38-3.51.02-4.86-2.53-2.5-6.38-3.25-9.86-2.53Z"></path><path class="cls-4" d="M63.03,41.59c.15-.76-.45-1.57-1.27-2.14-2.58-1.8-6.39-1.7-8.81.47-.76.68-.59,2.71.2,3.23,3.31,2.2,9.27,1.53,9.88-1.55Z"></path><path class="cls-4" d="M28.17,41.19c-.36-3.37-6.36-2.95-8.35-2.23-1.34.48-2.04,1.49-1.9,2.7.12,1.01.69,1.74,1.82,2.25,3.37,1.5,8.78.56,8.43-2.72Z"></path><path class="cls-4" d="M39.65,41.11c-3.01-.27-4.53-4.03-5.35-2.19-.14.32-.18.8.15,1.22,3.02,3.75,8.69,3.74,11.89.16.45-.51.23-1.32-.06-1.55-1.5-1.24-2.01,2.78-6.63,2.37Z"></path><path class="cls-2" d="M20.53,7.29c.84,3.56-10.25,1.35-10.67,12.59-.05,1.34-.87,2.24-1.9,2.17-1.44-.1-1.89-.97-1.78-2.43.96-12.23,13.52-15.81,14.34-12.33Z"></path><path class="cls-2" d="M24.22,35.25c2.15-.4,3.75-2.15,4.01-4.27.29-2.25-1.02-4.15-2.96-5.16,3.01-1.76,7.45.11,9.92,2.61,1.6,1.62.61,3.88-.88,5.04-3.03,2.36-6.68,2.58-10.09,1.79Z"></path><path class="cls-2" d="M51.61,35.18c2.02-.91,3.3-2.77,3.21-5.07-.08-2.03-1.63-3.35-3.29-4.58,3.48-.72,7.34.03,9.86,2.53,1.36,1.35,1.36,3.52-.02,4.86-2.56,2.47-6.59,3.54-9.77,2.26Z"></path><path class="cls-3" d="M51.54,25.53c1.66,1.23,3.21,2.55,3.29,4.58.09,2.31-1.19,4.17-3.21,5.07-2.88.36-6.56-1.6-6.67-4.43-.13-3.38,3.86-4.88,6.6-5.22Z"></path><path class="cls-3" d="M25.27,25.82c1.94,1.02,3.25,2.91,2.96,5.16-.27,2.12-1.86,3.87-4.01,4.27-2.25-.52-4.2-.88-5.4-3.05-.65-1.19-.27-3.48.82-4.56,1.56-1.55,3.72-1.91,5.63-1.82Z"></path><path class="cls-3" d="M39.65,41.11c4.62.41,5.13-3.61,6.63-2.37.29.24.51,1.05.06,1.55-3.2,3.58-8.87,3.6-11.89-.16-.33-.41-.29-.9-.15-1.22.82-1.84,2.34,1.93,5.35,2.19Z"></path><path class="cls-1" d="M63.03,41.59c-.61,3.09-6.57,3.75-9.87,1.55-.79-.52-.96-2.54-.2-3.23,2.42-2.17,6.22-2.27,8.81-.47.82.57,1.42,1.39,1.27,2.14Z"></path><path class="cls-1" d="M28.17,41.19c-.36-3.37-6.36-2.95-8.35-2.23-1.34.48-2.04,1.49-1.9,2.7.12,1.01.69,1.74,1.82,2.25,3.37,1.5,8.78.56,8.43-2.72Z"></path></svg>