<?xml version="1.0" encoding="UTF-8"?>
<svg id="Layer_1" xmlns="http://www.w3.org/2000/svg" xmlns:xlink="http://www.w3.org/1999/xlink" version="1.1" viewBox="0 0 2834.6 2834.6">
  <!-- Generator: Adobe Illustrator 30.2.1, SVG Export Plug-In . SVG Version: 2.1.1 Build 1)  -->
  <defs>
    <style>
      .st0 {
        fill: url(#linear-gradient2);
      }

      .st1 {
        fill: url(#linear-gradient1);
      }

      .st2 {
        fill: url(#linear-gradient);
      }

      .st3 {
        fill: #fff;
      }

      .st4 {
        fill: #ef5498;
      }
    </style>
    <linearGradient id="linear-gradient" x1="1804.5" y1="62.3" x2="1090.2" y2="2577.4" gradientTransform="translate(2835.1 -5.9) rotate(90)" gradientUnits="userSpaceOnUse">
      <stop offset="0" stop-color="#b74097"/>
      <stop offset="0" stop-color="#b84094"/>
      <stop offset=".2" stop-color="#cc4072"/>
      <stop offset=".4" stop-color="#db4057"/>
      <stop offset=".6" stop-color="#e64044"/>
      <stop offset=".8" stop-color="#ec4039"/>
      <stop offset="1" stop-color="#ef4136"/>
    </linearGradient>
    <linearGradient id="linear-gradient1" x1="491.8" y1="1258.8" x2="376.5" y2="1588.8" gradientUnits="userSpaceOnUse">
      <stop offset="0" stop-color="#ae519f"/>
      <stop offset="0" stop-color="#b44f94"/>
      <stop offset=".2" stop-color="#c94a72"/>
      <stop offset=".4" stop-color="#da4657"/>
      <stop offset=".6" stop-color="#e54344"/>
      <stop offset=".8" stop-color="#ec4139"/>
      <stop offset="1" stop-color="#ef4136"/>
    </linearGradient>
    <linearGradient id="linear-gradient2" x1="236.3" y1="1513.6" x2="236.3" y2="1513.6" xlink:href="#linear-gradient1"/>
  </defs>
  <g>
    <rect class="st2" x="3.4" y="-2.6" width="2834.6" height="2834.6" rx="1417.3" ry="1417.3" transform="translate(-75.8 2748.8) rotate(-86.6)"/>
    <path class="st1" d="M410.6,1340.8l-96.3,180.3c-11.2,20.7-25.4,30.6-42.4,29.6-22-1.3-36.7-19.3-35.6-37,.5-9.2,4-19,10.3-29.3l125.7-219.9c12-21.4,26.8-31.2,44.6-30.2,17.7,1.1,31.3,12.6,40.6,35.2l98.8,233.2c5.1,11,7.3,21.1,6.8,30.3-1.1,17.8-17.7,33.9-39.7,32.6-17.1-1-29.9-12.5-38.6-34.4l-74.2-190.4Z"/>
    <path class="st3" d="M1325.5,1697c11-7.5,21.1-11,30.4-10.5,16.3,1,27.8,13.9,26.8,30.2-.9,14.5-11.6,27.3-31.9,37.2-30.1,15.7-61.4,22.6-93.4,20.7-40.1-2.4-71.9-16.5-96.6-43.1-24.7-26.6-35.6-58.7-33.3-97.6,2.3-38.9,16.9-69.6,44.6-93,27.7-23.4,60.9-33.7,101-31.3,32,1.9,62.3,12.5,90.3,31.6,19.1,12.2,28.2,26.2,27.3,40.7-1,16.3-13.9,27.8-30.2,26.8s-18.9-5.2-28.9-14c-19.3-18.1-39.7-28-61.2-29.3-41.9-2.5-75.7,26.4-78.4,72.3-2.7,45.9,27.4,78.6,69.3,81.1,21.5,1.3,42.9-6.2,64.3-21.8Z"/>
    <path class="st3" d="M728.8,1660.5c-24.2-28.6-35-64.9-32.4-109.5,2.6-43.9,17.6-78.7,45.1-104.2,27.5-25.6,60.5-37.2,99.9-34.9,37.4,2.2,65.2,14.9,82.7,37.3l.2-2.6c1-17.4,16-28.9,34.7-27.8,20,1.2,34.1,16.3,32.7,39.6l-13.1,219.5c-1.4,23.3-17.1,36.6-37.1,35.4-18.1-1.1-32.2-13.6-31.2-31l.2-2.6c-21.3,20.1-50.3,28.7-86.5,26.6-39.4-2.3-70.8-17.8-95.1-45.8ZM918.6,1564.2c3.1-51.7-24-87-69.8-89.7-43.9-2.6-77.6,29.7-80.6,80.7-3,51,25.9,87.1,70.5,89.7,45.8,2.7,76.9-29.1,80-80.8Z"/>
    <path class="st3" d="M1756,1649c20.6,1.2,32.5,11.3,31.6,27.3-1,17-12.4,25.2-34.6,23.9-7.3-.4-19.6-1.7-36.6-3.2-17-1.5-26.8-2.6-29.9-2.8l-8.9,150.3c-1.1,19.1-13.2,29.8-29.7,28.8-17.1-1-27.2-13-26.1-32.1l8.9-150.3c-26.4,0-48.7-.8-66.8-1.9-22.2-1.3-32.5-10.8-31.5-27.8,1-16,13.9-24.6,34.6-23.4l189.1,11.2Z"/>
    <path class="st3" d="M2114.3,1788.2l-9.1,152.9c-1,16.7-12,26-26.5,25.2-14.9-.9-24.7-11.5-23.7-28.2l5.9-99.5-92.3,102.5c-11.2,12-21.5,17.8-31.4,17.2-14.9-.9-23.4-10.9-22.4-27.7l9.1-153.7c-.6-35.4,54.6-32.2,49.7,3l-6,101.3,92.3-103c11.2-12.5,21.5-18.7,31.5-18.1,14.5.9,23.8,11.9,22.8,28.1Z"/>
    <path class="st3" d="M410.6,1340.8l-96.3,180.3c-11.2,20.7-25.4,30.6-42.4,29.6-22-1.3-36.7-19.3-35.6-37,.5-9.2,4-19,10.3-29.3l125.7-219.9c12-21.4,26.8-31.2,44.6-30.2,17.7,1.1,31.3,12.6,40.6,35.2l98.8,233.2c5.1,11,7.3,21.1,6.8,30.3-1.1,17.8-17.7,33.9-39.7,32.6s-29.9-12.5-38.6-34.4l-74.2-190.4Z"/>
    <path class="st3" d="M2378.6,2047.5l-52.7-73.9-30.2,18.4-2.3,38.3c-.9,14.3-9.8,21.9-22.2,21.2-12-.7-20-9.4-19.2-23.7l7.8-131.6c.8-13.9,9.8-21.9,22.2-21.2,12,.7,20,9.7,19.2,23.7l-2.8,46.8,85.3-55.5c8.9-5.3,16.4-7.9,22.6-7.6,12,.7,19.3,9.3,18.5,21.3-.5,8.1-5.6,15.2-14.8,20.5l-48.4,29,48.9,66.2c6.1,8.1,8.8,15.3,8.5,21.1-.6,10.8-8.9,19.3-21.3,18.5-7.3-.4-13.7-4.3-19.1-11.6Z"/>
    <path class="st0" d="M236.3,1513.6"/>
  </g>
  <image width="1454" height="1268" transform="translate(1588.3 -689) scale(.5)" xlink:href="red-Logo_print_mm_cmyk-1.png"/>
  <circle class="st4" cx="486.9" cy="-532.2" r="356.9"/>
</svg>